<svg xmlns="http://www.w3.org/2000/svg" style="display:none"><symbol id="icon-bars" viewBox="0 0 27 32"><path d="M27.429 24v2.286q0 .464-.339.804t-.804.339H1.143q-.464 0-.804-.339T0 26.286V24q0-.464.339-.804t.804-.339h25.143q.464 0 .804.339t.339.804zm0-9.143v2.286q0 .464-.339.804t-.804.339H1.143q-.464 0-.804-.339T0 17.143v-2.286q0-.464.339-.804t.804-.339h25.143q.464 0 .804.339t.339.804zm0-9.143V8q0 .464-.339.804t-.804.339H1.143q-.464 0-.804-.339T0 8V5.714q0-.464.339-.804t.804-.339h25.143q.464 0 .804.339t.339.804z"/></symbol><symbol id="icon-check" viewBox="0 0 24 24"><path d="M19.293 5.293L9 15.586l-4.293-4.293a.999.999 0 1 0-1.414 1.414l5 5a.999.999 0 0 0 1.414 0l11-11a.999.999 0 1 0-1.414-1.414z"/></symbol><symbol id="icon-chevron-down" viewBox="0 0 24 24"><path d="M5.293 9.707l6 6a.999.999 0 0 0 1.414 0l6-6a.999.999 0 1 0-1.414-1.414L12 13.586 6.707 8.293a.999.999 0 1 0-1.414 1.414z"/></symbol><symbol id="icon-chevron-left" viewBox="0 0 24 24"><path d="M15.707 17.293L10.414 12l5.293-5.293a.999.999 0 1 0-1.414-1.414l-6 6a.999.999 0 0 0 0 1.414l6 6a.999.999 0 1 0 1.414-1.414z"/></symbol><symbol id="icon-chevron-right" viewBox="0 0 24 24"><path d="M9.707 18.707l6-6a.999.999 0 0 0 0-1.414l-6-6a.999.999 0 1 0-1.414 1.414L13.586 12l-5.293 5.293a.999.999 0 1 0 1.414 1.414z"/></symbol><symbol id="icon-chevron-up" viewBox="0 0 24 24"><path d="M18.707 14.293l-6-6a.999.999 0 0 0-1.414 0l-6 6a.999.999 0 1 0 1.414 1.414L12 10.414l5.293 5.293a.999.999 0 1 0 1.414-1.414z"/></symbol><symbol id="icon-facebook-square" viewBox="0 0 27 32"><path d="M22.286 2.286q2.125 0 3.634 1.509t1.509 3.634v17.143q0 2.125-1.509 3.634t-3.634 1.509h-3.357V19.09h3.554l.536-4.143H18.93v-2.643q0-1 .42-1.5t1.634-.5l2.179-.018V6.59q-1.125-.161-3.179-.161-2.429 0-3.884 1.429t-1.455 4.036v3.054h-3.571v4.143h3.571v10.625h-9.5q-2.125 0-3.634-1.509T.002 24.573V7.43q0-2.125 1.509-3.634t3.634-1.509h17.143z"/></symbol><symbol id="icon-instagram-square" viewBox="0 0 27 32"><path d="M18.286 16q0-1.893-1.339-3.232t-3.232-1.339-3.232 1.339T9.144 16t1.339 3.232 3.232 1.339 3.232-1.339T18.286 16zm2.464 0q0 2.929-2.054 4.982t-4.982 2.054-4.982-2.054T6.678 16t2.054-4.982 4.982-2.054 4.982 2.054T20.75 16zm1.929-7.321q0 .679-.482 1.161t-1.161.482-1.161-.482-.482-1.161.482-1.161 1.161-.482 1.161.482.482 1.161zM13.714 4.75l-1.366-.009q-1.241-.009-1.884 0t-1.723.054-1.839.179-1.277.33q-.893.357-1.571 1.036T3.018 7.911q-.196.518-.33 1.277t-.179 1.839-.054 1.723 0 1.884T2.464 16t-.009 1.366 0 1.884.054 1.723.179 1.839.33 1.277q.357.893 1.036 1.571t1.571 1.036q.518.196 1.277.33t1.839.179 1.723.054 1.884 0 1.366-.009 1.366.009 1.884 0 1.723-.054 1.839-.179 1.277-.33q.893-.357 1.571-1.036t1.036-1.571q.196-.518.33-1.277t.179-1.839.054-1.723 0-1.884T24.964 16t.009-1.366 0-1.884-.054-1.723-.179-1.839-.33-1.277q-.357-.893-1.036-1.571t-1.571-1.036q-.518-.196-1.277-.33t-1.839-.179-1.723-.054-1.884 0-1.366.009zM27.429 16q0 4.089-.089 5.661-.179 3.714-2.214 5.75t-5.75 2.214q-1.571.089-5.661.089t-5.661-.089q-3.714-.179-5.75-2.214T.09 21.661Q.001 20.09.001 16t.089-5.661q.179-3.714 2.214-5.75t5.75-2.214q1.571-.089 5.661-.089t5.661.089q3.714.179 5.75 2.214t2.214 5.75q.089 1.571.089 5.661z"/></symbol><symbol id="icon-linkedin-square" viewBox="0 0 27 32"><path d="M4.232 25.25h4.125V12.857H4.232V25.25zM8.625 9.036q-.018-.929-.643-1.536t-1.661-.607-1.688.607-.652 1.536q0 .911.634 1.527t1.652.616h.018q1.054 0 1.696-.616t.643-1.527zM19.071 25.25h4.125v-7.107q0-2.75-1.304-4.161t-3.446-1.411q-2.429 0-3.732 2.089h.036v-1.804h-4.125q.054 1.179 0 12.393h4.125V18.32q0-.679.125-1 .268-.625.804-1.063T17 15.819q2.071 0 2.071 2.804v6.625zm8.358-17.821v17.143q0 2.125-1.509 3.634t-3.634 1.509H5.143q-2.125 0-3.634-1.509T0 24.572V7.429q0-2.125 1.509-3.634t3.634-1.509h17.143q2.125 0 3.634 1.509t1.509 3.634z"/></symbol><symbol id="icon-menu" viewBox="0 0 24 24"><path d="M3 13h18a1 1 0 0 0 0-2H3a1 1 0 0 0 0 2zm0-6h18a1 1 0 0 0 0-2H3a1 1 0 0 0 0 2zm0 12h18a1 1 0 0 0 0-2H3a1 1 0 0 0 0 2z"/></symbol><symbol id="icon-twitter-square" viewBox="0 0 27 32"><path d="M22.857 10.893q-1 .446-2.161.607 1.214-.714 1.661-2.089-1.161.679-2.393.911-1.089-1.179-2.732-1.179-1.554 0-2.652 1.098t-1.098 2.652q0 .518.089.857-2.304-.125-4.321-1.161T5.821 9.821q-.518.893-.518 1.893 0 2.036 1.625 3.125-.839-.018-1.786-.464v.036q0 1.339.893 2.384t2.196 1.295q-.518.143-.911.143-.232 0-.696-.071.375 1.125 1.33 1.857t2.17.75q-2.071 1.607-4.661 1.607-.464 0-.893-.054 2.643 1.679 5.75 1.679 2 0 3.75-.634t3-1.696 2.152-2.446 1.339-2.893.438-3.009q0-.321-.018-.482 1.125-.804 1.875-1.946zm4.572-3.464v17.143q0 2.125-1.509 3.634t-3.634 1.509H5.143q-2.125 0-3.634-1.509T0 24.572V7.429q0-2.125 1.509-3.634t3.634-1.509h17.143q2.125 0 3.634 1.509t1.509 3.634z"/></symbol><symbol id="icon-x" viewBox="0 0 24 24"><path d="M5.293 6.707L10.586 12l-5.293 5.293a.999.999 0 1 0 1.414 1.414L12 13.414l5.293 5.293a.999.999 0 1 0 1.414-1.414L13.414 12l5.293-5.293a.999.999 0 1 0-1.414-1.414L12 10.586 6.707 5.293a.999.999 0 1 0-1.414 1.414z"/></symbol></svg>